<?xml version="1.0" encoding="utf-8"?>
<!-- Generator: Adobe Illustrator 26.0.2, SVG Export Plug-In . SVG Version: 6.00 Build 0)  -->
<svg version="1.1" id="Capa_1" xmlns="http://www.w3.org/2000/svg" xmlns:xlink="http://www.w3.org/1999/xlink" x="0px" y="0px"
	 width="120.339px" height="96.194px" viewBox="0 0 120.339 96.194" enable-background="new 0 0 120.339 96.194"
	 xml:space="preserve">
<g>
	<g>
		<g>
			<g>
				
					<path fill="#FFFFFF" stroke="#000000" stroke-width="2" stroke-linecap="round" stroke-linejoin="round" stroke-miterlimit="10" d="
					M118.061,32.095c0,0-25.919,28.365-57.892,28.365S2.278,32.095,2.278,32.095S28.197,3.73,60.17,3.73
					S118.061,32.095,118.061,32.095z"/>
				
					<circle fill="#00A769" stroke="#000000" stroke-width="2" stroke-linecap="round" stroke-linejoin="round" stroke-miterlimit="10" cx="60.17" cy="32.095" r="24.016"/>
				
					<circle stroke="#000000" stroke-width="2" stroke-linecap="round" stroke-linejoin="round" stroke-miterlimit="10" cx="60.17" cy="32.095" r="8.461"/>
				
					<path fill="#F4AFCC" stroke="#000000" stroke-width="2" stroke-linecap="round" stroke-linejoin="round" stroke-miterlimit="10" d="
					M118.061,32.095c0,0-25.919-28.365-57.892-28.365S2.278,32.095,2.278,32.095S28.197,14.842,60.17,14.842
					S118.061,32.095,118.061,32.095z"/>
			</g>
			
				<path fill="#00B7E9" stroke="#000000" stroke-width="2" stroke-linecap="round" stroke-linejoin="round" stroke-miterlimit="10" d="
				M114.724,30.081c-8.465,2.019-16.208,6.807-23.314,11.974c-2.691,1.957-5.454,4.037-8.715,4.695
				c-1.229,0.248-2.481,0.282-3.738,0.278c-1.206-0.004-2.417-0.043-3.618,0.035c-4.757,0.312-9.168,2.454-13.717,3.878
				c-4.549,1.424-22.27-7.402-22.649-7.565c-4.393-1.892-9.742-0.806-14.398-2.249c-4.252-1.317-7.546-4.615-11.324-6.969
				c-3.216-2.005-7.453-3.246-10.817-1.897c2.072,2.207,27.12,28.199,57.736,28.199c31.973,0,57.892-28.365,57.892-28.365
				S116.878,31.31,114.724,30.081z"/>
		</g>
		
			<path fill="#00B7E9" stroke="#000000" stroke-width="2" stroke-linecap="round" stroke-linejoin="round" stroke-miterlimit="10" d="
			M25.713,82.04c0,5.49-4.45,9.94-9.94,9.94s-9.94-4.45-9.94-9.94c0-5.49,9.94-20.333,9.94-20.333S25.713,76.55,25.713,82.04z"/>
		<g>
			<g>
				
					<circle fill="#F9B928" stroke="#000000" stroke-width="2" stroke-linecap="round" stroke-linejoin="round" stroke-miterlimit="10" cx="99.763" cy="76.844" r="15.62"/>
				
					<line fill="#F9B928" stroke="#000000" stroke-width="2" stroke-linecap="round" stroke-linejoin="round" stroke-miterlimit="10" x1="95.134" y1="68.383" x2="95.134" y2="76.844"/>
				
					<line fill="#F9B928" stroke="#000000" stroke-width="2" stroke-linecap="round" stroke-linejoin="round" stroke-miterlimit="10" x1="104.509" y1="68.383" x2="104.509" y2="76.844"/>
				
					<line fill="none" stroke="#000000" stroke-width="2" stroke-linecap="round" stroke-linejoin="round" stroke-miterlimit="10" x1="93.282" y1="85.305" x2="105.447" y2="85.305"/>
			</g>
			
				<ellipse fill="#1E1E1C" stroke="#000000" stroke-width="2" stroke-linecap="round" stroke-linejoin="round" stroke-miterlimit="10" cx="95.076" cy="72.613" rx="1.375" ry="4.434"/>
			
				<ellipse fill="#1E1E1C" stroke="#000000" stroke-width="2" stroke-linecap="round" stroke-linejoin="round" stroke-miterlimit="10" cx="104.451" cy="72.613" rx="1.375" ry="4.434"/>
		</g>
	</g>
</g>
</svg>
