<svg xmlns="http://www.w3.org/2000/svg" width="50px" height="50px" viewBox="0 0 50 49"><path d="M24.809.004c-.028 0-.137.012-.239.02-.808.074-2.07.433-3.328.945-.59.242-.734.304-1.097.469-.57.257-1.516.71-1.926.93-.094.046-.254.132-.364.19-.109.055-.28.145-.375.2-.097.05-.23.12-.296.156a69 69 0 0 0-3.536 2.082c-.09.059-.246.156-.34.215a80 80 0 0 0-2.331 1.555c-.536.375-.551.386-.715.504-.078.054-.219.156-.313.222a73 73 0 0 0-2.691 2.043c-.18.149-.953.785-1.133.938-.277.234-.5.425-.617.53l-.23.204-.262.234-.375.34a55 55 0 0 0-1.606 1.578 21 21 0 0 0-1.523 1.79c-.645.867-1.063 1.617-1.274 2.296-.175.57-.254 1.293-.234 2.254.008.61.031.973.098 1.598.023.242.101.875.128 1.043.008.055.032.187.047.293.145.945.395 2.191.657 3.305.12.496.375 1.492.5 1.945l.09.336c.581 2.12 1.48 4.851 2.363 7.18a72 72 0 0 0 2.363 5.574c.14.3.582 1.187.64 1.297l.15.28c.913 1.747 1.808 3.098 2.495 3.774.426.422 1.031.758 1.992 1.117.188.07.688.23.961.309 2.008.566 4.899.973 8.172 1.145.98.05 1.172.058 2.535.09 1.012.023 3.22.011 4.211-.028a84 84 0 0 0 2.574-.133c.215-.015 1.215-.097 1.625-.136 2.047-.196 3.797-.465 5.208-.801 1.3-.309 2.34-.688 2.949-1.082.527-.336 1-.903 1.715-2.04.457-.73 1.218-2.14 1.699-3.152l.191-.394c.094-.2.418-.899.606-1.309.074-.168.203-.457.39-.883.305-.695.957-2.27 1.274-3.086.07-.171.152-.39.191-.488.04-.094.117-.3.176-.457l.203-.535c.266-.707.676-1.848.977-2.73.23-.672.441-1.317.75-2.286.046-.144.144-.465.304-1 .309-1.02.688-2.418.918-3.383.125-.53.137-.57.188-.808.351-1.578.586-3.098.644-4.195.016-.336.016-.895 0-1.16-.066-.965-.27-1.532-.898-2.493-.965-1.476-2.996-3.578-5.512-5.71-.094-.075-.226-.192-.3-.255a79.763 79.763 0 0 0-8.512-6.191c-.32-.203-.914-.566-1.387-.848-1.973-1.168-3.754-2.07-5.227-2.648-1.03-.406-1.957-.66-2.632-.73a7 7 0 0 0-.711-.02m.699 3.61c.387.054.672.14.972.292.723.367 1.25 1.031 1.622 2.043.203.551.378 1.293.476 2.02.04.297.074.558.078.636l.024.235a40.106 40.106 0 0 1 .121 2.004c.004.222.015.59.023.816.004.223.016.649.02.945.008.293.015.688.023.875s.016.5.024.696c.015.484.066 1.203.113 1.652.176 1.598.543 2.516 1.164 2.918.215.14.57.258.926.309.472.07 1.18.05 1.91-.051.926-.125 1.953-.344 3.93-.844 2.074-.52 2.738-.676 3.562-.836 1.695-.332 2.863-.39 3.746-.195.867.191 1.422.668 1.64 1.406.067.23.095.383.098.594.008.219-.003.348-.046.535-.207.879-.934 1.625-2.329 2.402-.308.172-1.062.54-1.484.723-.734.316-1.176.492-3.184 1.262-1.421.539-2.246.887-3.019 1.258-1.188.57-2.016 1.14-2.523 1.738-.485.57-.676 1.16-.61 1.898.082.98.578 2.137 1.621 3.809.293.465.594.93 1.164 1.785 1.282 1.914 1.739 2.652 2.192 3.543.363.723.586 1.29.715 1.836.14.602.156 1.062.058 1.55a2.5 2.5 0 0 1-.367.856c-.11.168-.176.25-.32.39-.344.349-.668.536-1.078.626-.094.023-.145.027-.348.027-.207 0-.258-.004-.367-.027-.848-.168-1.801-.828-2.977-2.063-.66-.691-1.168-1.289-2.683-3.148-.59-.73-.723-.887-1.102-1.34-1.637-1.941-2.758-2.906-3.738-3.215-.516-.164-.985-.133-1.555.106-.719.3-1.523.925-2.559 1.988-.386.395-.902.953-1.16 1.258-.035.043-.11.125-.16.183-.21.239-.531.61-.848.985l-.472.554c-.074.086-.23.266-.344.403-.187.219-.297.344-.672.77-.234.273-.574.644-.844.933-.187.2-.699.71-.878.879-.399.37-.829.719-1.184.96-.242.16-.606.356-.82.442-.29.11-.516.156-.774.164-.289.012-.5-.031-.746-.144-.473-.22-.902-.696-1.098-1.215a2.5 2.5 0 0 1-.164-.727c-.043-.457.04-1.054.23-1.695.38-1.258 1.188-2.781 2.802-5.3l.328-.52c.11-.176.254-.399.316-.496.266-.418.664-1.07.914-1.504.75-1.301 1.117-2.164 1.219-2.887.074-.504-.004-.887-.246-1.219-.246-.34-.582-.62-1.156-.98-.52-.325-1.395-.75-2.395-1.168-.629-.266-.863-.36-1.941-.793-.582-.23-1.047-.422-1.364-.551-.14-.059-.293-.125-.347-.145a58 58 0 0 1-1.149-.503c-1.617-.735-2.789-1.457-3.5-2.165-.347-.343-.547-.609-.726-.957a2.5 2.5 0 0 1-.258-.812c-.07-.54.082-1.18.394-1.637.114-.168.344-.394.516-.508.496-.324 1.145-.468 2.035-.445.313.008.512.024.781.055.59.066 1.215.18 1.997.363.71.164 1.308.324 2.843.754 1.871.523 2.64.719 3.492.887.836.164 1.407.23 2 .23.325 0 .47-.008.696-.039.36-.05.726-.168.957-.308.45-.278.746-.668 1.004-1.332.129-.329.23-.739.332-1.293.11-.594.203-1.7.234-2.762.02-.582.047-1.598.059-2.188.011-.52.047-1.433.066-1.699.008-.082.016-.238.024-.351.02-.325.086-.97.132-1.305.106-.758.235-1.317.414-1.844.243-.71.563-1.25.965-1.633.309-.289.594-.468.977-.597.27-.094.48-.137.836-.172.11-.012.633 0 .75.02m0 0" style="stroke:none;fill-rule:nonzero;fill:#e82340;fill-opacity:1"/></svg>