<svg xmlns="http://www.w3.org/2000/svg" viewBox="0 0 110.89 60.88"><defs><style>.cls-1{fill:#fff;}</style></defs><g id="Layer_2" data-name="Layer 2"><g id="Layer_1-2" data-name="Layer 1"><path class="cls-1" d="M57.38,30c-.67-2.3-1.18-4.64-2-6.84a5.52,5.52,0,0,1,.58-5.53,3.8,3.8,0,0,1,3.72,2.75,24.48,24.48,0,0,1,1.28,3.88,18.78,18.78,0,0,0,4,8.8c1.78,2,4.31,2.15,5.76-.12a5.21,5.21,0,0,0,1-4.44,12.41,12.41,0,0,1-.25-1.62c-.72-5.11-1-10.35-4.18-14.77a4.14,4.14,0,0,1-.27-1,4.9,4.9,0,0,0-3.4-3.5,43.92,43.92,0,0,0-4.27-1.34,17.16,17.16,0,0,0-4.85-.17c-4.12.52-6.59,3.43-8.35,6.76-1.38,2.59-2.94,5-4.45,7.53a3.71,3.71,0,0,1-3.75,2,31.9,31.9,0,0,0-4.48,0c-1.67.09-3.34.29-4.9.44-1.07,7.17-2,14.17.22,21.29a38.91,38.91,0,0,0,5.39-.55c3.28-.78,5.53.91,7.16,3.19A4.63,4.63,0,0,0,45,48.91c2.44.21,4.89.26,7.34.35a9.43,9.43,0,0,0,1.38-.12l2.71-6.46a12.82,12.82,0,0,1-2-6.44A6.19,6.19,0,0,1,57.38,30Z"/><path class="cls-1" d="M8.64,27.07c-.44-1.14-1.14-1.26-2.36-.89a3.81,3.81,0,0,0-2.59,5.16c.6,1.84,1,2.13,2.93,2.17A16.15,16.15,0,0,1,9,33.77c.78.14,1.43.5,1.51,1.42s-.63,1.05-1.25,1.35a5.3,5.3,0,0,0-3,3.12,2.46,2.46,0,0,0,1.5,3.14,3.42,3.42,0,0,0,4.44-3c.15-1.47.84-2.13,2.3-1.79,2.54.61,4.9-.55,7.5-.34,0-2.55,0-4.9-.05-7.55l-6.4.26C12.68,30.44,9.94,30.39,8.64,27.07Z"/><path class="cls-1" d="M64.09,40.67l-4-4.8C58.61,38.13,61,40.7,64.09,40.67Z"/><path class="cls-1" d="M103.86,15.24a39,39,0,0,0-6-.86c-2.23-.18-4.47-.18-6.7-.27-.75,0-1.5-.15-2.25-.17-3.52-.08-7-.19-10.57-.17-1.45,0-3-.43-4.44.41.43,1.68.91,3.3,1.26,5s.59,3.46.92,5.46c.82-.26,1.43-.43,2-.66.43-.16.84-.55,1.26-.56,2.31-.06,4.63,0,6.94-.05,4.22,0,8.44,0,12.66-.1a10.42,10.42,0,0,0,5.35-1.86,3.88,3.88,0,0,0,1.61-3.57A2.69,2.69,0,0,0,103.86,15.24Z"/><path class="cls-1" d="M85,32.64c-1.46-.94-3.11-.83-4.68-1.1-1.1-.18-2.26-.58-3.34,0-.65,3.72-2.6,6.68-5.26,9.6a13.37,13.37,0,0,0,1.48.11c2.17-.15,4.35-.24,6.5-.52a55.65,55.65,0,0,0,5.58-1.12,2,2,0,0,0,1.23-.92C87.66,36.1,87.78,34.45,85,32.64Z"/><path class="cls-1" d="M77.66,47.42c-4.58.91-9.1-.05-13.63-.43a4.54,4.54,0,0,0-5,4.86c.16,1.41.66,2,2.09,2,4.69.16,9.39.3,14.08.39A8.13,8.13,0,0,0,78,53.9a8.49,8.49,0,0,0,2.76-1.57c1.45-1.29,1.52-2.93.55-4.94A19.22,19.22,0,0,0,77.66,47.42Z"/><path d="M105.82,9.44a26.53,26.53,0,0,0-8.17-1.66c-4.42,0-8.84-.11-13.26-.16-4,0-8-.13-12.06-.08A2.58,2.58,0,0,1,69.78,6a6,6,0,0,0-1.94-2.28,43.25,43.25,0,0,0-5.77-2.59A16.54,16.54,0,0,0,52.41.41a11.33,11.33,0,0,0-6.19,3.32,35.21,35.21,0,0,0-2.37,2.81c-1.4,1.94-3.14,3.59-3.93,6-.69,2.15-1.83,4.26-4.82,4.18s-6.24.1-9.36.14c-2.23,0-3.1.79-3.15,3,0,1.22.15,2.45.13,3.68s-.2,2.52-.31,3.8a12.76,12.76,0,0,1-1.46.22c-2.25,0-4.49-.12-6.73-.07a3.07,3.07,0,0,1-3-1.72,4.45,4.45,0,0,0-2-1.9c-4.19-1.55-7.14-.44-9,3.68A2.5,2.5,0,0,0,0,29c.5,2.61.87,5.33,3.76,6.57.1,0,.13.23.23.44-.3.68-.68,1.41-.94,2.17a5.18,5.18,0,0,0,3,6.73,9.32,9.32,0,0,0,6.6,0A5.83,5.83,0,0,0,16,41.13l6.62-.62c.21,1.69.34,3.17.6,4.63a21.24,21.24,0,0,0,1,4.12A2.61,2.61,0,0,0,26.82,51c2.65-.09,5.32-.09,7.94-.43a3.52,3.52,0,0,1,3.4,1.21,10.63,10.63,0,0,0,8.18,3.5c2.72,0,5.43.13,8.11.2,1.39,2.77,3.35,4.77,6.51,5q7,.39,14.09.46c5.27,0,9.61-1.59,11.91-6.89a8.47,8.47,0,0,0,.65-5.54c-.17-.71-.33-1.43-.48-2.09,4.28-2.49,6.64-6.69,3.94-16,.48-.05.81-.1,1.13-.1,2.66-.07,5.32,0,8-.22A11.85,11.85,0,0,0,110.53,15.2C109.89,12.62,108.58,10.37,105.82,9.44ZM22,37.62c-2.6-.21-5,1-7.5.34-1.46-.34-2.15.32-2.3,1.79a3.42,3.42,0,0,1-4.44,3,2.46,2.46,0,0,1-1.5-3.14,5.3,5.3,0,0,1,3-3.12c.62-.3,1.34-.44,1.25-1.35S9.81,33.91,9,33.77a16.15,16.15,0,0,0-2.41-.26c-1.89,0-2.33-.33-2.93-2.17a3.81,3.81,0,0,1,2.59-5.16c1.22-.37,1.92-.25,2.36.89,1.3,3.32,4,3.37,6.91,3.26l6.4-.26C22,32.72,22,35.07,22,37.62Zm34.39,5.06-2.71,6.46a9.43,9.43,0,0,1-1.38.12c-2.45-.09-4.9-.14-7.34-.35a4.63,4.63,0,0,1-3.66-2.13c-1.63-2.28-3.88-4-7.16-3.19a38.91,38.91,0,0,1-5.39.55C26.53,37,27.46,30,28.53,22.85c1.56-.15,3.23-.35,4.9-.44a31.9,31.9,0,0,1,4.48,0,3.71,3.71,0,0,0,3.75-2c1.51-2.49,3.07-4.94,4.45-7.53,1.76-3.33,4.23-6.24,8.35-6.76a17.16,17.16,0,0,1,4.85.17,43.92,43.92,0,0,1,4.27,1.34,4.9,4.9,0,0,1,3.4,3.5,4.14,4.14,0,0,0,.27,1c3.18,4.42,3.46,9.66,4.18,14.77a12.41,12.41,0,0,0,.25,1.62,5.21,5.21,0,0,1-1,4.44c-1.45,2.27-4,2.16-5.76.12a18.78,18.78,0,0,1-4-8.8,24.48,24.48,0,0,0-1.28-3.88,3.8,3.8,0,0,0-3.72-2.75,5.52,5.52,0,0,0-.58,5.53c.85,2.2,1.36,4.54,2,6.84a6.19,6.19,0,0,0-3,6.21A12.82,12.82,0,0,0,56.39,42.68Zm7.7-2c-3.12,0-5.48-2.54-4-4.8ZM80.75,52.33A8.49,8.49,0,0,1,78,53.9a8.13,8.13,0,0,1-2.83.35c-4.69-.09-9.39-.23-14.08-.39-1.43,0-1.93-.6-2.09-2A4.54,4.54,0,0,1,64,47c4.53.38,9,1.34,13.63.43a19.22,19.22,0,0,1,3.64,0C82.27,49.4,82.2,51,80.75,52.33Zm5.73-13.6a2,2,0,0,1-1.23.92,55.65,55.65,0,0,1-5.58,1.12c-2.15.28-4.33.37-6.5.52a13.37,13.37,0,0,1-1.48-.11c2.66-2.92,4.61-5.88,5.26-9.6,1.08-.62,2.24-.22,3.34,0,1.57.27,3.22.16,4.68,1.1C87.78,34.45,87.66,36.1,86.48,38.73ZM104.3,21.37A10.42,10.42,0,0,1,99,23.23c-4.22.1-8.44.08-12.66.1-2.31,0-4.63,0-6.94.05-.42,0-.83.4-1.26.56-.59.23-1.2.4-2,.66-.33-2-.56-3.75-.92-5.46s-.83-3.28-1.26-5c1.46-.84,3-.4,4.44-.41,3.53,0,7,.09,10.57.17.75,0,1.5.14,2.25.17,2.23.09,4.47.09,6.7.27a39,39,0,0,1,6,.86,2.69,2.69,0,0,1,2,2.56A3.88,3.88,0,0,1,104.3,21.37Z"/></g></g></svg>